<svg width="800" height="800" viewBox="0 0 800 800" fill="none" xmlns="http://www.w3.org/2000/svg">
<path fill-rule="evenodd" clip-rule="evenodd" d="M733.333 166.667C733.333 111.438 688.563 66.6667 633.333 66.6667H166.667C111.438 66.6667 66.6667 111.438 66.6667 166.667V633.333C66.6667 688.563 111.438 733.333 166.667 733.333H633.333C688.563 733.333 733.333 688.563 733.333 633.333V166.667ZM666.667 166.667C666.667 148.257 651.743 133.333 633.333 133.333H166.667C148.257 133.333 133.333 148.257 133.333 166.667V633.333C133.333 651.743 148.257 666.667 166.667 666.667H633.333C651.743 666.667 666.667 651.743 666.667 633.333V166.667Z" fill="white"/>
</svg>
