<svg width="580" height="422" viewBox="0 0 580 422" fill="none" xmlns="http://www.w3.org/2000/svg">
<line x1="352.736" y1="217.791" x2="295.17" y2="47.5354" stroke="white" stroke-width="5"/>
<line x1="354.014" y1="219.24" x2="228.08" y2="158.212" stroke="white" stroke-width="5"/>
<line x1="356.962" y1="218.664" x2="249.675" y2="337.808" stroke="white" stroke-width="5"/>
<line x1="357.313" y1="215.819" x2="444.881" y2="380.794" stroke="white" stroke-width="5"/>
<line x1="355.952" y1="214.639" x2="513.82" y2="271.513" stroke="white" stroke-width="5"/>
<line x1="353.148" y1="215.434" x2="450.198" y2="93.4252" stroke="white" stroke-width="5"/>
<path d="M354.686 215.521L539.701 137.501" stroke="white" stroke-width="5"/>
<line x1="227.084" y1="160.056" x2="132.031" y2="307.046" stroke="white" stroke-width="5"/>
<line x1="226.044" y1="160.964" x2="117.144" y2="211.863" stroke="white" stroke-width="5"/>
<line x1="224.738" y1="161.187" x2="34.359" y2="142.3" stroke="white" stroke-width="5"/>
<line x1="222.847" y1="159.994" x2="147.674" y2="35.9009" stroke="white" stroke-width="5"/>
<path d="M372.935 184.359C375.541 185.931 377.289 188.605 377.685 191.622L382.072 225.093C382.467 228.11 381.467 231.143 379.354 233.334L355.921 257.632C353.809 259.823 350.814 260.932 347.784 260.646L314.176 257.475C311.146 257.19 308.412 255.54 306.746 252.993L288.271 224.74C286.606 222.193 286.191 219.026 287.144 216.136L297.713 184.077C298.666 181.186 300.884 178.887 303.737 177.83L335.393 166.105C338.246 165.048 341.426 165.348 344.032 166.921L372.935 184.359Z" fill="#2FA084"/>
<path d="M266.894 126.11C269.499 127.682 271.247 130.356 271.643 133.373L276.03 166.844C276.425 169.861 275.425 172.894 273.313 175.085L249.879 199.383C247.767 201.574 244.772 202.683 241.742 202.397L208.134 199.226C205.105 198.941 202.37 197.291 200.704 194.744L182.229 166.491C180.564 163.944 180.149 160.777 181.102 157.887L191.672 125.827C192.625 122.937 194.842 120.638 197.695 119.581L229.351 107.856C232.204 106.799 235.384 107.099 237.99 108.672L266.894 126.11Z" fill="#F5824A"/>
<path d="M164.964 17.4406C168.612 19.6416 171.059 23.384 171.612 27.6084L172.679 35.7489C173.233 39.9733 171.833 44.22 168.875 47.2867L163.176 53.1964C160.219 56.2632 156.026 57.8163 151.784 57.4161L143.61 56.6449C139.368 56.2446 135.54 53.9347 133.208 50.3688L128.715 43.4974C126.383 39.9316 125.802 35.498 127.136 31.4517L129.707 23.6545C131.041 19.6082 134.145 16.3896 138.14 14.9097L145.839 12.0581C149.834 10.5783 154.286 10.9983 157.934 13.1993L164.964 17.4406Z" fill="#F5824A"/>
<path d="M145.63 289.36C149.278 291.561 151.725 295.303 152.279 299.528L153.346 307.668C153.9 311.893 152.5 316.139 149.542 319.206L143.843 325.116C140.885 328.183 136.692 329.736 132.45 329.336L124.277 328.564C120.035 328.164 116.206 325.854 113.875 322.288L109.381 315.417C107.049 311.851 106.468 307.417 107.802 303.371L110.373 295.574C111.707 291.528 114.811 288.309 118.807 286.829L126.505 283.978C130.501 282.498 134.952 282.918 138.6 285.119L145.63 289.36Z" fill="#F5824A"/>
<path d="M49.7567 122.647C53.4047 124.848 55.8519 128.591 56.4056 132.815L57.4725 140.955C58.0262 145.18 56.6261 149.427 53.6685 152.493L47.9693 158.403C45.0117 161.47 40.8186 163.023 36.5769 162.623L28.4031 161.851C24.1614 161.451 20.3328 159.141 18.001 155.575L13.5077 148.704C11.1759 145.138 10.5948 140.705 11.9289 136.658L14.4996 128.861C15.8337 124.815 18.9377 121.596 22.933 120.116L30.6319 117.265C34.6272 115.785 39.079 116.205 42.727 118.406L49.7567 122.647Z" fill="#F5824A"/>
<path d="M141.279 185.866C144.927 188.067 147.374 191.809 147.928 196.034L150.348 214.499C150.902 218.723 149.502 222.97 146.544 226.037L133.617 239.442C130.659 242.509 126.466 244.062 122.224 243.662L103.683 241.912C99.4415 241.512 95.6129 239.202 93.2811 235.636L83.0887 220.05C80.757 216.484 80.1759 212.05 81.5099 208.004L87.3412 190.317C88.6753 186.271 91.7793 183.052 95.7746 181.572L113.238 175.104C117.234 173.624 121.685 174.044 125.333 176.245L141.279 185.866Z" fill="#F5824A"/>
<path d="M557.942 115.926C561.59 118.127 564.037 121.869 564.591 126.094L566.165 138.106C566.719 142.331 565.319 146.577 562.361 149.644L553.951 158.365C550.994 161.431 546.8 162.984 542.559 162.584L530.497 161.446C526.256 161.046 522.427 158.736 520.095 155.17L513.465 145.031C511.133 141.465 510.552 137.031 511.886 132.985L515.679 121.479C517.013 117.433 520.117 114.214 524.113 112.734L535.473 108.526C539.469 107.046 543.921 107.467 547.569 109.667L557.942 115.926Z" fill="#2FA084"/>
<path d="M312.368 34.5588C316.016 36.7598 318.463 40.5022 319.016 44.7266L320.196 53.7275C320.75 57.9519 319.35 62.1986 316.392 65.2653L310.091 71.7996C307.133 74.8664 302.94 76.4195 298.698 76.0193L289.66 75.1666C285.419 74.7663 281.59 72.4564 279.258 68.8905L274.29 61.2929C271.958 57.7271 271.377 53.2935 272.711 49.2472L275.554 40.6258C276.888 36.5795 279.992 33.3609 283.987 31.881L292.5 28.728C296.495 27.2482 300.947 27.6682 304.595 29.8692L312.368 34.5588Z" fill="#2FA084"/>
<path d="M468.416 77.6872C472.064 79.8882 474.512 83.6306 475.065 87.855L476.189 96.4257C476.742 100.65 475.342 104.897 472.385 107.964L466.384 114.186C463.427 117.252 459.233 118.805 454.992 118.405L446.386 117.593C442.144 117.193 438.316 114.883 435.984 111.317L431.253 104.083C428.921 100.517 428.34 96.0833 429.674 92.037L432.381 83.8276C433.715 79.7813 436.819 76.5627 440.814 75.0829L448.92 72.0806C452.915 70.6007 457.367 71.0208 461.015 73.2218L468.416 77.6872Z" fill="#2FA084"/>
<path d="M530.884 257.566C533.489 259.138 535.237 261.811 535.633 264.828L537.144 276.359C537.54 279.376 536.539 282.409 534.427 284.6L526.354 292.97C524.242 295.161 521.247 296.27 518.217 295.984L506.64 294.892C503.61 294.606 500.875 292.956 499.21 290.409L492.845 280.676C491.18 278.129 490.765 274.963 491.718 272.072L495.359 261.028C496.312 258.138 498.529 255.839 501.383 254.782L512.287 250.743C515.141 249.686 518.321 249.986 520.927 251.558L530.884 257.566Z" fill="#2FA084"/>
<path d="M256.547 323.767C260.195 325.968 262.642 329.71 263.195 333.935L264.206 341.645C264.76 345.869 263.36 350.116 260.402 353.183L255.004 358.78C252.046 361.847 247.853 363.4 243.612 363L235.87 362.269C231.628 361.869 227.799 359.559 225.468 355.993L221.212 349.485C218.88 345.919 218.299 341.486 219.633 337.439L222.068 330.054C223.402 326.008 226.506 322.789 230.501 321.309L237.793 318.608C241.789 317.129 246.24 317.549 249.888 319.75L256.547 323.767Z" fill="#2FA084"/>
<path d="M463.801 360.991C467.38 363.182 469.787 366.863 470.359 371.02L472.072 383.458C472.656 387.693 471.272 391.962 468.316 395.05L460.012 403.725C457.025 406.844 452.766 408.411 448.469 407.97L436.281 406.719C432.083 406.288 428.303 403.986 425.993 400.454L419.048 389.833C416.738 386.301 416.145 381.916 417.433 377.897L421.174 366.229C422.493 362.117 425.636 358.843 429.691 357.358L440.968 353.228C444.982 351.758 449.448 352.202 453.093 354.434L463.801 360.991Z" fill="#2FA084"/>
</svg>
